<svg xmlns="http://www.w3.org/2000/svg" width="24" height="24" viewBox="0 0 24 24"><defs><style>.a{fill:#fff;stroke:#707070;opacity:0;}.b{fill:#787887;}.c{stroke:none;}.d{fill:none;}</style></defs><g transform="translate(-825 -513)"><g class="a" transform="translate(825 513)"><rect class="c" width="24" height="24"/><rect class="d" x="0.5" y="0.5" width="23" height="23"/></g><path class="b" d="M14.906,13.067l-2.943-2.943a.708.708,0,0,0-.5-.207H10.98A6.137,6.137,0,1,0,9.917,10.98v.481a.708.708,0,0,0,.207.5l2.943,2.943a.705.705,0,0,0,1,0l.835-.835A.712.712,0,0,0,14.906,13.067ZM6.139,9.917A3.778,3.778,0,1,1,9.917,6.139,3.776,3.776,0,0,1,6.139,9.917Z" transform="translate(829.444 517.443)"/></g></svg>