<svg xmlns="http://www.w3.org/2000/svg" width="22" height="22" viewBox="0 0 22 22"><defs><style>.a{fill:#fff;stroke:#707070;opacity:0;}.b{fill:#212832;}.c{stroke:none;}.d{fill:none;}</style></defs><g transform="translate(-925 -527)"><g class="a" transform="translate(925 527)"><rect class="c" width="22" height="22"/><rect class="d" x="0.5" y="0.5" width="21" height="21"/></g><path class="b" d="M14.749,64H2.993a1.285,1.285,0,0,0-1.209.855H.641A.641.641,0,0,0,0,65.5v7.268a1.5,1.5,0,0,0,1.5,1.5H14.749a.641.641,0,0,0,.641-.641V64.641A.641.641,0,0,0,14.749,64ZM1.283,72.764V66.138H1.71v6.627a.214.214,0,1,1-.428,0Zm12.826.214H2.977a1.508,1.508,0,0,0,.015-.214V65.283H14.108ZM4.6,69.772H8.23a.321.321,0,0,0,.321-.321V66.886a.321.321,0,0,0-.321-.321H4.6a.321.321,0,0,0-.321.321v2.565A.321.321,0,0,0,4.6,69.772Zm.748-2.138H7.482V68.7H5.344ZM4.275,71.375v-.641a.321.321,0,0,1,.321-.321H8.23a.321.321,0,0,1,.321.321v.641a.321.321,0,0,1-.321.321H4.6A.321.321,0,0,1,4.275,71.375Zm5.13,0v-.641a.321.321,0,0,1,.321-.321H12.5a.321.321,0,0,1,.321.321v.641a.321.321,0,0,1-.321.321H9.726A.321.321,0,0,1,9.405,71.375Zm0-3.848v-.641a.321.321,0,0,1,.321-.321H12.5a.321.321,0,0,1,.321.321v.641a.321.321,0,0,1-.321.321H9.726A.321.321,0,0,1,9.405,67.527Zm0,1.924V68.81a.321.321,0,0,1,.321-.321H12.5a.321.321,0,0,1,.321.321v.641a.321.321,0,0,1-.321.321H9.726A.321.321,0,0,1,9.405,69.451Z" transform="translate(928.305 469.744)"/></g></svg>