<svg xmlns="http://www.w3.org/2000/svg" width="24" height="24" viewBox="0 0 24 24"><defs><style>.a{fill:#fff;stroke:#707070;opacity:0;}.b{fill:#2cb7df;}.c{stroke:none;}.d{fill:none;}</style></defs><g transform="translate(-749 -513)"><g class="a" transform="translate(749 513)"><rect class="c" width="24" height="24"/><rect class="d" x="0.5" y="0.5" width="23" height="23"/></g><path class="b" d="M9.474,8.406,3.017,14.863a1.135,1.135,0,0,1-1.609,0L.335,13.79a1.135,1.135,0,0,1,0-1.609L4.911,7.6.335,3.027a1.135,1.135,0,0,1,0-1.609L1.4.335a1.135,1.135,0,0,1,1.609,0L9.469,6.792A1.136,1.136,0,0,1,9.474,8.406Z" transform="translate(768.197 520) rotate(90)"/></g></svg>