<svg xmlns="http://www.w3.org/2000/svg" width="22" height="22" viewBox="0 0 22 22"><defs><style>.a{fill:#fff;stroke:#707070;opacity:0;}.b{fill:#212832;}.c{stroke:none;}.d{fill:none;}</style></defs><g transform="translate(-955 -527)"><g class="a" transform="translate(955 527)"><rect class="c" width="22" height="22"/><rect class="d" x="0.5" y="0.5" width="21" height="21"/></g><path class="b" d="M9.306,2.366,7.2.255A1.208,1.208,0,0,0,6.343-.1H1.208A1.212,1.212,0,0,0,0,1.11V11.576a1.208,1.208,0,0,0,1.208,1.208H8.453a1.208,1.208,0,0,0,1.208-1.208V3.221A1.214,1.214,0,0,0,9.306,2.366Zm-.951.757H6.441V1.208ZM1.208,11.576V1.11H5.233V3.727a.6.6,0,0,0,.6.6H8.453v7.246Z" transform="translate(961.311 531.514)"/></g></svg>