<svg xmlns="http://www.w3.org/2000/svg" width="24" height="24" viewBox="0 0 24 24"><defs><style>.a{fill:#fff;stroke:#707070;opacity:0;}.b{fill:#787887;}.c{stroke:none;}.d{fill:none;}</style></defs><g transform="translate(-710 -513)"><g class="a" transform="translate(710 513)"><rect class="c" width="24" height="24"/><rect class="d" x="0.5" y="0.5" width="23" height="23"/></g><path class="b" d="M20.145,66.884l-9.027-2.773a2.585,2.585,0,0,0-1.514,0L.576,66.884a.762.762,0,0,0,0,1.475l1.574.483a2.55,2.55,0,0,0-.579,1.518,1,1,0,0,0-.083,1.716L.663,75.795a.518.518,0,0,0,.505.63H2.984a.518.518,0,0,0,.506-.63l-.826-3.718a1,1,0,0,0-.058-1.7,1.527,1.527,0,0,1,.67-1.188L9.6,71.134a2.588,2.588,0,0,0,1.514,0l9.028-2.773A.762.762,0,0,0,20.145,66.884Zm-8.723,5.239a3.623,3.623,0,0,1-2.123,0L4.606,70.682l-.459,3.672c0,1.144,2.782,2.071,6.214,2.071s6.214-.927,6.214-2.071l-.459-3.672Z" transform="translate(711.995 453.942)"/></g></svg>