<svg xmlns="http://www.w3.org/2000/svg" viewBox="0 0 22 22"><defs><style>.a{fill:#fff;stroke:#707070;opacity:0;}.b{fill:#787887;}.c{stroke:none;}.d{fill:none;}</style></defs><g transform="translate(-892 -527)"><g class="a" transform="translate(892 527)"><rect class="c" /><rect class="d" x="0.5" y="0.5"/></g><path class="b" d="M11.844,10.382,9.505,8.044a.562.562,0,0,0-.4-.164H8.724a4.876,4.876,0,1,0-.844.844v.382a.562.562,0,0,0,.164.4l2.338,2.338a.561.561,0,0,0,.8,0l.664-.664A.566.566,0,0,0,11.844,10.382ZM4.878,7.88a3,3,0,1,1,3-3A3,3,0,0,1,4.878,7.88Z" transform="translate(897 532)"/></g></svg>